<svg width="480" height="320" viewBox="0 0 480 320" fill="none" xmlns="http://www.w3.org/2000/svg">
  <rect width="480" height="320" rx="32" fill="#140C16"/>
  <path d="M112 226L167 110H191V226H169V189H134L118 226H112ZM138 170H169V125L138 170Z" fill="#FFF6EF"/>
  <path d="M224 226L279 110H303V226H281V189H246L230 226H224ZM250 170H281V125L250 170Z" fill="#FFF6EF"/>
  <path d="M368 226C333 226 309 201 309 168C309 134 333 110 368 110C403 110 427 134 427 168C427 201 403 226 368 226ZM368 205C390 205 403 190 403 168C403 145 390 131 368 131C346 131 333 145 333 168C333 190 346 205 368 205Z" fill="#FFF6EF"/>
  <circle cx="88" cy="86" r="30" fill="#FF6B35" fill-opacity="0.18"/>
  <circle cx="398" cy="76" r="42" fill="#06FFA5" fill-opacity="0.14"/>
</svg>
