<svg width="360" height="96" viewBox="0 0 360 96" fill="none" xmlns="http://www.w3.org/2000/svg">
  <rect width="360" height="96" rx="24" fill="#120A14"/>
  <g transform="translate(18 16)">
    <rect width="64" height="64" rx="20" fill="#1B111B"/>
    <path d="M18 33C18 24.1634 25.1634 17 34 17C42.8366 17 50 24.1634 50 33C50 41.8366 42.8366 49 34 49" stroke="url(#paint0_linear)" stroke-width="7" stroke-linecap="round"/>
    <circle cx="34" cy="33" r="7" fill="#FFD23F"/>
    <circle cx="56" cy="14" r="4" fill="#06FFA5"/>
    <circle cx="60" cy="32" r="4" fill="#FF6B35"/>
    <circle cx="54" cy="52" r="4" fill="#FFD23F"/>
    <path d="M40 27L51 17" stroke="#06FFA5" stroke-width="3" stroke-linecap="round"/>
    <path d="M43 33H54" stroke="#FF6B35" stroke-width="3" stroke-linecap="round"/>
    <path d="M40 39L50 49" stroke="#FFD23F" stroke-width="3" stroke-linecap="round"/>
  </g>
  <path d="M111.348 63V33.48H129.52V39.408H118.212V45.32H128.56V51.248H118.212V63H111.348ZM146.577 63.528C140.041 63.528 135.593 59.016 135.593 53.064V43.112H142.457V52.696C142.457 55.72 143.929 57.248 146.577 57.248C149.209 57.248 150.697 55.72 150.697 52.696V43.112H157.561V53.064C157.561 59.016 153.097 63.528 146.577 63.528ZM166.059 63V43.112H172.603V46.136C173.691 44.136 175.595 42.648 178.667 42.648C183.515 42.648 186.331 45.976 186.331 51.232V63H179.787V52.48C179.787 49.968 178.683 48.6 176.523 48.6C174.315 48.6 172.939 50.016 172.939 52.56V63H166.059ZM203.604 63.528C197.58 63.528 193.108 59.304 193.108 53.08C193.108 46.824 197.596 42.648 203.604 42.648C208.564 42.648 211.412 45.272 212.596 47.992L207.428 50.52C206.836 49.368 205.844 48.424 203.748 48.424C201.036 48.424 199.684 50.488 199.684 53.08C199.684 55.672 201.068 57.72 203.812 57.72C205.86 57.72 206.948 56.824 207.684 55.576L212.756 58.328C211.236 61.176 208.244 63.528 203.604 63.528ZM226.669 63.464C221.189 63.464 217.541 60.792 217.541 55.808C217.541 50.856 221.317 48.312 226.429 48.312C228.925 48.312 230.861 48.84 232.109 49.432V48.888C232.109 46.776 230.797 45.576 228.333 45.576C226.109 45.576 224.669 46.376 223.421 47.336L219.885 43.4C221.893 41.576 224.589 40.392 228.957 40.392C236.045 40.392 239.037 43.816 239.037 49.56V63H232.317V60.92C231.229 62.472 229.229 63.464 226.669 63.464ZM228.589 58.76C230.861 58.76 232.333 57.384 232.333 55.448V54.824C231.565 54.376 230.253 53.944 228.829 53.944C226.717 53.944 225.389 54.84 225.389 56.456C225.389 57.944 226.557 58.76 228.589 58.76ZM253.186 63.352C248.53 63.352 246.178 60.92 246.178 56.088V48.68H242.93V43.112H246.178V37.968H252.77V43.112H257.922V48.68H252.77V54.728C252.77 56.512 253.65 57.264 255.058 57.264C256.018 57.264 256.866 57.024 257.57 56.648V62.152C256.45 62.84 255.202 63.352 253.186 63.352ZM264.012 63V43.112H270.604V63H264.012ZM263.74 41.128V35.2H270.908V41.128H263.74ZM286.204 63.528C280.148 63.528 275.468 59.16 275.468 53.08C275.468 46.984 280.196 42.648 286.252 42.648C292.308 42.648 296.972 46.984 296.972 53.08C296.972 59.16 292.26 63.528 286.204 63.528ZM286.252 57.688C288.66 57.688 290.364 55.704 290.364 53.08C290.364 50.44 288.644 48.488 286.204 48.488C283.78 48.488 282.076 50.44 282.076 53.08C282.076 55.704 283.796 57.688 286.252 57.688ZM303.226 63V43.112H309.77V46.136C310.858 44.136 312.762 42.648 315.834 42.648C320.682 42.648 323.498 45.976 323.498 51.232V63H316.954V52.48C316.954 49.968 315.85 48.6 313.69 48.6C311.482 48.6 310.106 50.016 310.106 52.56V63H303.226Z" fill="#FFF6EF"/>
  <defs>
    <linearGradient id="paint0_linear" x1="18" y1="17" x2="50" y2="49" gradientUnits="userSpaceOnUse">
      <stop stop-color="#FF6B35"/>
      <stop offset="0.58" stop-color="#FFD23F"/>
      <stop offset="1" stop-color="#06FFA5"/>
    </linearGradient>
  </defs>
</svg>
